#!OML:ASF Y:\EmotionMaleHayes\Project 1\Capture day 1\Session 1\Male1.ASF
:FULLY-SPECIFIED
:DEGREES
73
root 10.0784 17.0413 0.974158 22.537 72.1488 26.5678
lowerback 4.88227 2.81382 -11.3439
upperback 4.7654 3.6516 -3.44793
thorax 1.81414 1.66324 2.60165
lowerneck -21.4331 -4.97794 -1.88786
upperneck 16.812 -7.13722 4.24322
head 9.02302 -2.97444 0.768678
rclavicle 1.67973e-014 2.14687e-014
rhumerus -45.6253 41.0762 -110.99
rradius 93.9666
rwrist -8.81771
rhand -17.3177 -34.3432
rfingers 7.12502
rthumb 8.92877 -64.1343
lclavicle 1.67973e-014 2.14687e-014
lhumerus -48.5834 -41.5639 108.976
lradius 92.2885
lwrist 13.629
lhand -8.98221 -32.6537
lfingers 7.12502
lthumb 16.9636 -3.37451
rfemur -0.897779 -0.735837 2.3056
rtibia 20.1418
rfoot -17.5096 -1.12894
rtoes -7.48263
lfemur 7.82488 3.73682 -25.125
ltibia 12.3908
lfoot -17.3898 11.4962
ltoes -16.4908
74
root 10.0767 17.0433 0.992777 22.104 72.2159 26.1089
lowerback 4.86113 2.73979 -11.2368
upperback 4.78788 3.55703 -3.3514
thorax 1.85958 1.61301 2.65039
lowerneck -21.4718 -5.13447 -2.1506
upperneck 16.7585 -7.32862 4.52259
head 9.03997 -3.04943 0.877737
rclavicle -1.59028e-014 -6.67916e-014
rhumerus -45.5481 41.3114 -110.877
rradius 94.0496
rwrist -9.24014
rhand -17.7623 -34.5259
rfingers 7.12502
rthumb 8.49978 -64.3348
lclavicle -1.59028e-014 -6.67916e-014
lhumerus -48.6301 -41.3363 109.114
lradius 92.2214
lwrist 13.1307
lhand -10.2342 -32.6629
lfingers 7.12502
lthumb 15.7581 -3.28437
rfemur -0.833126 -0.809152 2.52206
rtibia 20.0953
rfoot -17.4851 -1.0914
rtoes -8.53371
lfemur 7.71733 3.66077 -24.8986
ltibia 12.6441
lfoot -17.5763 11.5956
ltoes -17.0524
75
root 10.0725 17.0478 1.01022 21.3469 72.0203 25.4217
lowerback 5.01639 2.82167 -11.1352
upperback 4.74857 3.63711 -3.28977
thorax 1.72079 1.66093 2.64585
lowerneck -21.5351 -5.35501 -2.2223
upperneck 16.8848 -7.62012 4.54229
head 9.1086 -3.18364 0.851249
rclavicle -4.77083e-015 7.95139e-016
rhumerus -45.5933 41.4435 -110.832
rradius 94.1238
rwrist -9.6238
rhand -18.3484 -34.8266
rfingers 7.12502
rthumb 7.93409 -64.6577
lclavicle -4.77083e-015 7.95139e-016
lhumerus -48.9465 -41.2447 109.416
lradius 92.2789
lwrist 13.314
lhand -11.4567 -32.7042
lfingers 7.12502
lthumb 14.5805 -3.23671
rfemur -0.832731 -0.704242 2.71439
rtibia 20.1058
rfoot -17.3967 -0.969991
rtoes -10.0543
lfemur 7.81536 3.79315 -24.6898
ltibia 12.7017
lfoot -17.6465 11.74
ltoes -17.2222
76
root 10.0608 17.0512 1.02387 19.7086 71.8124 23.7926
lowerback 5.24114 2.94831 -10.6931
upperback 4.64851 3.7691 -3.22002
thorax 1.48717 1.74752 2.45547
lowerneck -21.5398 -5.51958 -2.11606
upperneck 17.0158 -7.86799 4.45709
head 9.15519 -3.29842 0.768004
rclavicle -2.33572e-014 6.36111e-014
rhumerus -45.7101 41.3676 -110.89
rradius 94.0871
rwrist -9.64222
rhand -18.5961 -35.2813
rfingers 7.12502
rthumb 7.69505 -65.1213
lclavicle -2.33572e-014 6.36111e-014
lhumerus -49.2417 -41.2939 109.643
lradius 92.3009
lwrist 13.564
lhand -12.6817 -32.7954
lfingers 7.12502
lthumb 13.4 -3.24634
rfemur -0.971703 -0.474083 3.27274
rtibia 20.1802
rfoot -17.3239 -0.791397
rtoes -10.159
lfemur 7.87542 4.02641 -24.104
ltibia 12.7526
lfoot -17.7031 11.8259
ltoes -16.7011
77
root 10.0534 17.0526 1.02941 18.639 71.7947 22.6404
lowerback 5.26627 2.90857 -10.2459
upperback 4.59883 3.71726 -3.16147
thorax 1.44262 1.73246 2.2729
lowerneck -21.4532 -5.57238 -2.1339
upperneck 16.9572 -7.9515 4.54247
head 9.1276 -3.33149 0.790306
rclavicle 4.16454e-014 -5.96354e-014
rhumerus -45.7792 41.4533 -110.979
rradius 94.0247
rwrist -10.1247
rhand -19.0914 -35.7583
rfingers 7.12502
rthumb 7.21688 -65.6152
lclavicle 4.16454e-014 -5.96354e-014
lhumerus -49.217 -41.149 109.653
lradius 92.2474
lwrist 13.4833
lhand -13.8073 -32.9236
lfingers 7.12502
lthumb 12.315 -3.30622
rfemur -1.1223 -0.486854 3.66414
rtibia 20.2708
rfoot -17.1333 -0.572868
rtoes -9.6213
lfemur 7.75873 4.04662 -23.6838
ltibia 12.9171
lfoot -17.8164 11.8502
ltoes -16.0163
78
root 10.0551 17.0539 1.02811 18.1527 71.8442 22.0893
lowerback 5.18163 2.82859 -9.87341
upperback 4.60345 3.63182 -3.11625
thorax 1.51768 1.69334 2.1261
lowerneck -21.4409 -5.6415 -2.28582
upperneck 16.9088 -8.04633 4.76831
head 9.12962 -3.36078 0.87818
rclavicle 3.47873e-015 1.51076e-014
rhumerus -45.801 41.5795 -110.958
rradius 94.0605
rwrist -10.9807
rhand -19.8649 -36.1163
rfingers 7.12502
rthumb 6.47027 -65.9975
lclavicle 3.47873e-015 1.51076e-014
lhumerus -49.1754 -40.9865 109.752
lradius 92.1995
lwrist 13.58
lhand -14.9159 -33.0819
lfingers 7.12502
lthumb 11.2459 -3.40333
rfemur -1.22914 -0.764681 3.76704
rtibia 20.4209
rfoot -16.9726 -0.224274
rtoes -8.87982
lfemur 7.66543 3.8437 -23.5791
ltibia 13.0343
lfoot -18.0352 12.0264
ltoes -15.9997
79
root 10.0572 17.0554 1.02508 17.7215 71.8723 21.6571
lowerback 5.12452 2.80562 -9.49958
upperback 4.64653 3.62372 -3.09628
thorax 1.61117 1.69285 1.94739
lowerneck -21.5773 -5.75176 -2.23066
upperneck 16.9779 -8.21888 4.77352
head 9.18173 -3.43217 0.842158
rclavicle 3.43897e-014 -5.88403e-014
rhumerus -45.7361 41.5699 -110.818
rradius 94.1307
rwrist -11.8029
rhand -22.3344 -35.6759
rfingers 7.12502
rthumb 4.08581 -65.6164
lclavicle 3.43897e-014 -5.88403e-014
lhumerus -49.2429 -41.0713 109.976
lradius 92.1921
lwrist 13.8665
lhand -16.2845 -33.2648
lfingers 7.12502
lthumb 9.92571 -3.51884
rfemur -1.26932 -1.0791 3.81639
rtibia 20.4749
rfoot -16.8599 0.0877097
rtoes -8.45127
lfemur 7.64913 3.61168 -23.5346
ltibia 13.0968
lfoot -18.3193 12.265
ltoes -16.2196
